<?xml version="1.0" encoding="UTF-8"?><svg id="Layer_1" xmlns="http://www.w3.org/2000/svg" viewBox="0 0 15.82 11.32"><path d="M10.42,10.67c0,.33-.98.6-2.22.61-.01,0-.02,0-.04,0h-.1c-.05,0-.1,0-.15,0-.05,0-.1,0-.15,0h-.1s-.03,0-.04,0c-1.24-.02-2.22-.29-2.22-.61,0-.23.49-.43,1.22-.54l.64-.94v-1.02c-.33-.12-.63-.31-.89-.53.14-.74.22-1.54.22-2.37,0-.7-.06-1.38-.16-2.02-.02-.15-.05-.3-.08-.44-.21-1.08-.56-2.03-1.01-2.78h5.14c-.45.75-.8,1.7-1.01,2.78-.03.14-.06.29-.08.44-.1.64-.16,1.32-.16,2.02,0,.83.08,1.63.22,2.37-.26.23-.56.41-.89.53v1.02l.64.94c.72.1,1.22.31,1.22.54Z" fill="#c82039" stroke="#131943" stroke-miterlimit="10" stroke-width=".05"/><path d="M15.79.64c-1.53.74-2.97,1.5-4.31,2.27-2.44,1.38-4.57,2.74-6.22,3.99l-.76.6c-.13.1-.27.22-.4.32,0,0,0,0,0,0,.03.11.05.24.05.37,0,.03,0,.07,0,.1h0c-.12.1-.19.27-.19.45,0,.03,0,.06,0,.09-.04.04-.09.06-.14.06-.13,0-.24-.13-.29-.34-.07.12-.12.25-.17.39-.09-.03-.18-.04-.28-.04-.06,0-.12,0-.18.02-.04,0-.1.01-.13.03-.07.01-.13.04-.19.08.04.01.07.03.11.05-.04.07-.1.14-.14.22h0c-.19.22-.36.43-.49.62-.05.07-.09.13-.13.19-.01,0-.02.02-.02.03-.28.31-.56.58-.84.8-.17.13-.34.25-.51.35-.31-.26-.49-.61-.49-.99,0-.22.06-.43.18-.61.21-.19.43-.39.67-.59.4-.34.85-.7,1.33-1.08.11.13.28.2.46.2.36,0,.65-.29.65-.65,0-.12-.03-.22-.09-.32.1-.07.2-.15.31-.22,1.01-.74,2.12-1.52,3.32-2.3,1.31-.85,2.58-1.63,3.75-2.3C12.67,1.25,14.43.4,15.56.03c.11.19.19.39.22.61Z" fill="#f2696a" stroke="#131943" stroke-miterlimit="10" stroke-width=".05"/><path d="M.03.64c1.53.74,2.97,1.5,4.31,2.27,2.44,1.38,4.57,2.74,6.22,3.99l.76.6c.13.1.27.22.4.32,0,0,0,0,0,0-.03.11-.05.24-.05.37,0,.03,0,.07,0,.1h0c.12.1.19.27.19.45,0,.03,0,.06,0,.09.04.04.09.06.14.06.13,0,.24-.13.29-.34.07.12.12.25.17.39.09-.03.18-.04.28-.04.06,0,.12,0,.18.02.04,0,.1.01.13.03.07.01.13.04.19.08-.04.01-.07.03-.11.05.04.07.1.14.14.22h0c.19.22.36.43.49.62.05.07.09.13.13.19.01,0,.02.02.02.03.28.31.56.58.84.8.17.13.34.25.51.35.31-.26.49-.61.49-.99,0-.22-.06-.43-.18-.61-.21-.19-.43-.39-.67-.59-.4-.34-.85-.7-1.33-1.08-.11.13-.28.2-.46.2-.36,0-.65-.29-.65-.65,0-.12.03-.22.09-.32-.1-.07-.2-.15-.31-.22-1.01-.74-2.12-1.52-3.32-2.3-1.31-.85-2.58-1.63-3.75-2.3C3.15,1.25,1.39.4.25.03.14.22.07.42.03.64Z" fill="#f2696a" stroke="#131943" stroke-miterlimit="10" stroke-width=".05"/><path d="M.2,5.38s-.06-.02-.06-.06v-1.13s.02-.06.06-.06h.5c.3,0,.39.14.39.34v.22c0,.2-.09.34-.39.34h-.19v.29s-.02.06-.06.06H.2ZM.51,4.72h.15c.06,0,.08-.04.08-.08v-.09s-.01-.09-.08-.09h-.15v.26Z" fill="#131943" stroke="#131943" stroke-miterlimit="10" stroke-width=".05"/><path d="M1.51,5.38h-.24s-.06-.02-.06-.06v-.46c0-.07.02-.16.06-.28l.14-.39s.04-.06.08-.06h.44s.07.02.08.06l.14.39c.04.12.06.21.06.28v.46s-.02.06-.06.06h-.25s-.06-.02-.06-.06v-.24h-.29v.24s-.02.06-.06.06ZM1.58,4.76h.26l-.08-.26s-.02-.03-.03-.03h-.04s-.02,0-.03.03l-.08.26Z" fill="#131943" stroke="#131943" stroke-miterlimit="10" stroke-width=".05"/><path d="M2.48,5.38s-.06-.02-.06-.06v-1.13s.02-.06.06-.06h.54c.24,0,.32.12.32.29v.08c0,.1-.02.17-.09.2.12.01.2.11.2.25v.37s-.02.06-.06.06h-.25s-.06-.02-.06-.06v-.27c0-.05-.02-.07-.06-.07h-.23v.34s-.02.06-.06.06h-.25ZM2.79,4.66h.12c.06,0,.07-.03.07-.08v-.06s-.01-.08-.07-.08h-.12v.22Z" fill="#131943" stroke="#131943" stroke-miterlimit="10" stroke-width=".05"/><path d="M3.88,5.38s-.06-.02-.06-.06v-.85h-.24s-.06-.02-.06-.06v-.21s.02-.06.06-.06h.86s.06.02.06.06v.21s-.02.06-.06.06h-.24v.85s-.02.06-.06.06h-.26Z" fill="#131943" stroke="#131943" stroke-miterlimit="10" stroke-width=".05"/><path d="M4.99,5.38s-.06-.02-.06-.06v-.22l-.25-.36c-.05-.07-.06-.11-.06-.21v-.33s.02-.06.06-.06h.25s.06.02.06.06v.29s0,.05.01.07l.08.13s.02.03.04.03h.02s.03,0,.04-.03l.08-.13s.01-.05.01-.07v-.29s.02-.06.06-.06h.24s.06.02.06.06v.33c0,.11-.01.14-.06.21l-.25.36v.22s-.02.06-.06.06h-.26Z" fill="#131943" stroke="#131943" stroke-miterlimit="10" stroke-width=".05"/><path d="M10.89,5.38s-.06-.02-.06-.06v-1.13s.02-.06.06-.06h.25s.06.02.06.06v.38h.27v-.38s.02-.06.06-.06h.25s.06.02.06.06v1.13s-.02.06-.06.06h-.25s-.06-.02-.06-.06v-.39h-.27v.39s-.02.06-.06.06h-.25Z" fill="#131943" stroke-width="0"/><path d="M12.57,5.41c-.41,0-.5-.14-.5-.35v-.86s.02-.06.06-.06h.26s.06.02.06.06v.79s.02.08.13.08.14-.03.14-.08v-.79s.02-.06.06-.06h.25s.06.02.06.06v.86c0,.21-.1.35-.5.35Z" fill="#131943" stroke-width="0"/><path d="M13.35,5.38s-.06-.02-.06-.06v-1.13s.02-.06.06-.06h.17s.07.01.1.05l.32.39v-.37s.02-.06.06-.06h.24s.06.02.06.06v1.13s-.02.06-.06.06h-.24s-.06-.02-.06-.06v-.21l-.28-.36v.57s-.02.06-.06.06h-.24Z" fill="#131943" stroke-width="0"/><path d="M14.8,5.38s-.06-.02-.06-.06v-.85h-.24s-.06-.02-.06-.06v-.21s.02-.06.06-.06h.86s.06.02.06.06v.21s-.02.06-.06.06h-.24v.85s-.02.06-.06.06h-.26Z" fill="#131943" stroke-width="0"/></svg>